<svg id="Ebene_1" data-name="Ebene 1" xmlns="http://www.w3.org/2000/svg" viewBox="0 0 332.18 245.74"><defs><style>.cls-1,.cls-2{fill:#0b559f;}.cls-1,.cls-3{stroke:#0e569f;stroke-linecap:round;stroke-linejoin:round;}.cls-1{stroke-width:2px;}.cls-2,.cls-4{fill-rule:evenodd;}.cls-3{fill:none;}.cls-4{fill:#fff;}</style></defs><title>Zeichenfläche 3</title><path class="cls-1" d="M270.67,17.13c-10.15.63-15,3.29-23.14,8.12C231.85,34.58,195.38,54.89,178,51.58c-.52-.1-1.41-1.49-1.45-1.57-2.4-4.25-5.74-34.18-6.5-38.26-1-5.3-2.63-5.44-3.82-5.3-1.19-.14-4.29.54-4.17,5.3.09,3.94-4.1,34-6.5,38.26,0,.08-1.4,3.47-1.92,3.56-17.4,3.32-51.68-17.66-67.35-27-8.11-4.82-8.08-4.46-21.25-6.8C62.44,19.24,36.38,13,2.34,2.8c2,12.94,6,35,75.07,75.23C97.38,89.66,2.55,30,10,8.6,40.85,16.25,68.65,22.48,71,23c9.14.57,15.5,5.64,22.8,10,14.11,8.39,46.53,25.5,62.19,22.52.47-.09,1.27-1.34,1.31-1.41,2.16-3.83,5.25-27.74,5.21-31.27-.08-7.72,3.16-7.75,3.17-7.75a2.52,2.52,0,0,1,.8,0,2.83,2.83,0,0,1,1.26.58c1.69,1.3,2.8,4.5,2.71,8.3s2.68,26.73,4.84,30.56a21.3,21.3,0,0,0,2.84,1.22c15.67,3,51.94-18.8,66-27.2,7.29-4.34,18.06-9.42,27.2-10,2.32-.5,33.91-8.9,54-12.32.5-3.24-.16,27.3-48.14,60.06C321,39.72,328.28,12,329.88,1.75,295.83,11.92,273.25,16.57,270.67,17.13Z"/><path class="cls-1" d="M137.9,160c-2.21-.27-10.65-.34-12.58-.41-11.37-.41-8.4.31-21-1.31,11.26-8.29,35.05-18.91,46.28-50.53,2.39-6.74-1.38.81-2.31.6-1.27,3.57,1.07,15.3-48.44,51.21,19.53,3.31,25.47,2,38.85,2.47a47.8,47.8,0,0,1,8.93-1.22C143.65,160.42,138.15,160.08,137.9,160Z"/><path class="cls-2" d="M202.81,238.43c0,.71.31,1.26,1.3,1.54l.24-.17.43-.34C204.82,239.38,204.9,237.79,202.81,238.43Zm1.8-89.58c.4,0,1.28-.83,1.68-.8,0,0-.51,1.37-.52,1.4-1,1.82,1,5,2.71,4.48,2.29-4.05,4.88-26,2.73-30.36C208.06,123.49,202.95,141.23,204.6,148.85Zm2.39,2.63c-.21-.24-.55-.51-.79-.79.14-.76,1.07-2.36.64-3.73-.12-.27-.46.56-.78-.85.08-3.23,1-16,3.72-17.86C209.17,133.08,211.75,137.32,207,151.49Zm73.36,83-.66-.65c0-2,2.38-3,2.61-5.52-1-2.34-1.4-1.68-2.33-4-.73-3.63,2-6.15,1.76-9.87q-.47-9.09-1-18.19l1.21-7.21c-.17-4.07-2.12-8.88-1-13.24a9.48,9.48,0,0,0,6.66-6.1l1.85-15.48L288.17,149c.3-14,2.6-39.5-10.57-45.43-1.34-.61-2.11-1.86-4-1.57-.16-.29-.33-.58-.5-.87l2.49-1c0-.22,0-.43,0-.65-2.18-1.68-5.17-2.49-8-3.7l1.79-6c-.26-.92-.5-1.84-.75-2.76,4.17-10.62,0-10.91-8.83-15-3.23.1-4.34,2-6.81,2.73-2.24.67-5-1.81-7.33-.76-3.36,1.51,1.62,9.48,2,11.06.81,3.5-.05,7.31,2.07,9.76l-4.67,1.38c.51,1.34,1,2.68,1.51,4l-6.91,1.42c-4.31.55-8.55-1.1-12.15-1.35-1.82-5.16,1.13-13.6-3.44-17.41a8.15,8.15,0,0,0-6.61-1.65c-9.66,1.63-7.12,9-9.75,17.67a13.34,13.34,0,0,0-8.3,8.42c-1.24,3.66,1.83,6.1,2,8.63l-2.06,7.25c-2.21,9.67-3.62,23-.24,32.2,1.35.29,3.11.59,4-.32,3.91,3.27-2.63,17.74-3.44,19.3,0,0,.2.73,0,1,1.8.5,5.7.09,6.47,1.61,1.87,3.69.4,15.19.64,19.21.19,3.1,1,4.68.88,7.83,0,1-1,.65-1.67,1l-.4.34c-.28,6.34,3.82,12.71,1.61,19.63-2.37,7.45-4.81,7-5.11,11.77-.52.48-.49,1-2.13.88-1.25-.12-5.41-1.39-5.95-2.4-1.2-2.21-1.63-19.47-1.62-23.83q.3-3.91.6-7.81c-2.45-12.45-2.1-37.71,1.43-50.62a10.92,10.92,0,0,0,.32-3.63c-.09-1.37-.32-2.66-.39-3.85q.47-4.84.93-9.69c.17-1.81-1.7-2.57-.59-5.31,3.07-7.6-.09-15.47-2.31-22.21-.46-1.4-1.77-3.59-1.41-5.6,1.05-6,7.11-1.18,7.79-4.91-8.76-4.67,3.54-21.45-6.21-25.06-17.28-6.41-26.72,19.6-13.55,24.52-3.65,0-7.31,1.41-9.2,3.51-2,2.26-1.68,6.19-3.3,9.12-2.19,3.94-8.08,12.31-8.5,17.19,0,.16,0,.31,0,.47.59,2.82,3.07,4,4,6.42.83,2.19.43,4.46,2.19,9.49.15,2.85-.62,5-.94,8.13-.42,4.13,2.51,10.73-1.41,15.34-2.11,3-5.3.12-5.56,3.91,0,.28.2,1,.18,1.31,2.87-.08,3.74,3.08,5.18,2.91,1.7.2,5.3-1,6.31,1.7.4,1.33,1.16.66.94,2.18-.21,1.22-1.9,6.41-1.4,28.88-.86,2.68-1.34,6.2-2.19,8.89,0,2.92,1,7.1-1.4,9.47a18.77,18.77,0,0,0,.24,4c.17,2.24-.91,5.29-.24,6.88,1.26,3,4.49,3.49,9.39,3.06,1.71-.15,3.56-1.3,5.73-.37,1.95.84,3.18,2.36,5.79,2.9,1.55.32,3.09-.82,4.88-.34,1.77,1,4.7.53,6.48,1.52,5.59.71,8.15-1.73,10.5-3.44,1.72-1.08,3.24-1.6,4.61-2.46,1-1.47,2.15-5.52,2.79-6.92.16-.07.7-.55.84,0a33.79,33.79,0,0,1,.37,6.57c1.06.39.62.44,1.35-.1,1.67-7.44-.93-23.81,2.36-30.8.43-.91-1.34-1-1.66-3.34-.48-3.58.48-11,2.61-23.15,0,.31,1.41,23.61,1.42,23.92-.54,1.92-1.06-.18-1,2.07.1.38.36.33.46.71.2,2.59,0,9.54,1,13.28l-1,5.07q.18,5.1.36,10.21l2.11.69.31-.35c.12-.87.24-1.73.35-2.6,4.52,6.21,12.78,6.94,21.48,5.8,2.95-.39,6.23,1.28,7.62-.9.52-.81,0-3.52-.36-4.51.73-1.07.52-3.7,1.25-4.77,1.57-3.31.88-12.38.68-16.11q.94-4.42,1.89-8.85c-.09-3.37-.42-7.75-.51-11.11.07-4.54,2.83-15.79,4.31-19.21,2,4.36,1.74,11.24,2.7,16.68,1,4.46,1.74,8.95,2.76,13.41q-.51,3.61-1,7.21c.28,1.89.57,3.77.84,5.66l.08.19c-.39,1.35-2,4.19-1.74,6.52l1.16,3.72c-.27.79-.54,1.59-.81,2.38-.51.47,3,4.12,2.82,4.77-.79,4.79.65,5.08.8,5.12,1.56,1,2,.21,4.26,1,2.9,1.18,6.24,2.77,8.22,3.08,7.65,1.2,8.39-1.88,7.8-2.75C285.83,237.16,284.65,236.53,280.36,234.49ZM206.52,101.05c2.59,6.62-.34,10.57-3.05,12.29l-.18-.1C199.69,108.41,202.39,104.77,206.52,101.05Zm-40.2,133c-.73-6.38-.25-1.54.45-7.57,1.9-2.13,2.89-16.39,3.64-19.29a83.46,83.46,0,0,1,.56-25.37c.46-2.26-.66-3.11,0-5.14,10.09,4.9,4.5,17.19,7.15,42.12,0,1.43.07,2.87.09,4.3-.87,2.54-2.28,3.75-2.07,7,.15,2.37,1.28,5.47,3.58,5.75,0,.4.62,2,.59,2.4C175.9,235.77,170.11,240.66,166.31,234.07Zm120.44,7.39a5.83,5.83,0,0,1-4.34,1.07c-2.82.09-9.84-4.17-12.75-5.87,0-1.15-.09-2.31-.14-3.47-1.28-3.65-4-8.55-2.83-13.82.48-.75,1-1.49,1.45-2.24,0-.09,0-.18,0-.28-.19-1.38-.38-2.77-.57-4.15q.5-4.73,1-9.47-1.38-4.57-2.76-9.14c-.67-3.48-.55-6.86-1.7-9.83.18-1.3.36-2.59.54-3.89-.53-3.4-1.17-9.11-4.66-10.11-2.23,1.24-7,21.12-6.22,25.18q.42,2.83.84,5.66c-.45,3.42-1.42,10.79-2.47,13.47.21,1.94.43,3.89.65,5.83-.35,1.83-1.42,5.1-.65,7.06a28,28,0,0,0-2.08,9,63.93,63.93,0,0,1-13.45.39,22.19,22.19,0,0,1-7.4-1.84c-3-1-1.82-5.54-5.87-8.42,0-7.65.66-14.65-1.23-21.19l1.45-.84q-.53-2.51-1.07-5c-.63-3.86,2.77-26.45-4-23.33-1.43,3.37-5.4,29.75-1.12,30-1.56,4.49-1.63,10.07-2.56,15,0,2.3.19,4.69.22,7-.54.09-1.93.07-2.46.15a59.08,59.08,0,0,0-2.65,8.17c-1.88,1.37-3.7,2-5.58,3.29l-1.27,1c-2.3.25-2.24,1.32-4.91,1.45-3.28.16-5.19-1.36-7.41-2.12-2.73-.93-5.22,1-7.52-.72-1.62-1.24-.79-4.43-2.59-5.58.44-7.17-.71-13.51-1-20.43-.42-10.12,2.27-27.58-2.77-34.83-2.6-3.75-7.85-4.84-11.78-4.68-4.38.61-5.61-1.14-6.2-3.12,1.49-.77,1.94-1.24,4.55-3.61,2.58-2.61,2-4.91,1.9-8.78,0-1.31-1.52-5.44.23-8.07,1.74-3.23,0-9.84,0-10.37.09,0,.77,1.68.85,1.72,3.2,6.38,6.7,5.54,7,14.84l-1.59.09c-.1.46-.19.92-.28,1.38,2.34,1,4.67.06,6.66-.77s7.54-1.86,6.3-6a18.48,18.48,0,0,0-4.16-6.58c-.19-.2-.48-2.37-1.43-3.56-2.23-2.78-7.49-10.08-7.6-10.68-.71-4,2.37-6.88,2.13-9.5,2.08-4.85,6.08-8,4.68-11l-.75,0c-2.49,4.15-9,13.18-8.44,19.94.44,5,.47-.47,2.37,4,.3.71,3.09,2.85,3.32,5.46,1.66.71,4,6.28,4.51,6.88,1.42,2.37,2.34,4,3.87,5.36-1,3.14-5.32,4.13-7.73,4.61,0-.1,0-.19-.07-.29,1.32-6.12-7.83-15.29-11.26-22.74-1.66-1.39-1.61-3.73-2.78-5.45-.34-1.55.24-3.74,1.25-6.11,2-5.53,2.45-4,3.66-6-1.42-.72,2.95-5.55,3.71-6.84q.7-3,1.42-6.07c1.86-3.81,9.27-2.59,11.07-5-.75-3.39-4.26-2-5.69-4.39-1-1.6-.76-4.14-.81-6.22-.22-9.75,5.48-13.36,14.21-13.08,8.84,4,.11,14.36,5.44,22.4-3.63.61-5.43.4-6.68,3.67s4.15,18.84,4.9,23.67c-.18,3.06-.27,7.5-1.46,8.69-.11,1.91.7,4.29.58,6.2,0,1.7-1,3.11-1.05,4.72,1.42,3.08-.95,14.93-2.12,22.35q0,6.12,0,12.24c0,9.08.32,19.19,1,29.29q-.38,3.06-.77,6.12.75,8.55,1.5,17.1c.23,1.89-1.54,3.41-.44,5.29s6.91,3.45,9.3,4a10.82,10.82,0,0,1,2.62-1.34c.15-2.35,4.72-6.49,5.58-8.86,2.23-6.13.54-13.61.06-19-.48-1.41-.39-3-.76-4,.46-.72.83-.82,1.28-1.54.78-3.35-.17-8.7-.35-11.2-.43-5.85,1.67-12.45-.18-17.91-.75-2.22-4.14-.81-6.34-1.8.71-2.76,8.5-20.61-.49-20.19,0,0-1,.71-1.35.4s0-1.58,0-1.6c-.58-3.84-2-10.7-1.34-14.69.1-.09.19-1.41.3-1.5,2.84-6.93,1.36-14.46,4.49-20.14,1-1.73,4-2,4.85-4.26,1.52-3.84,0-8,1-11,1.8-5.47,1.27-19.89,9.4-18.16,3.6.76,5.93,5.31,5.95,9.07-.31,1.44-.05,3.37-.37,4.81.72,6.38,1.25,7,2.16,10.72q-.75,3.6-1.5,7.19c.11,1.66.21,3.32.33,5-1.11,5.74-4.27,6.08-3,12.33,0,1.05.1,2.06.38,2l1.65-7.52q1.52-2.47,3-4.94c.66-3.37-1.58-5.81.21-9,.74-1.29,7.66.61,9.31,3.32,1.75,2.86,5.42,15,4.3,17.75,0,0-.42-.88-.45-.88-2.62-2.15-8.84-8.41-11.83-9.08l-.62,1c-.13,2.55.92,8.18,2.15,9.95-.13,3,4.14,37.8,5.83,39.52,0,.06,0,.12,0,.18-1.56-.08-4.26.17-4.85,1.27-.79,1.5-2.27,27-1.49,28.44.46.1,1.32,1,1.78,1-1.5,3.18-3,18.44-1,22.6,1.36,2.88,4.36,5.83,6.15,6.32,3.24.9,2.94-1.71,4.92-2.35,2.34-.76,3.26-.78,3.33-3.8l-3-1q-.47-9.79-1-19.59,1.14-5.25,2.27-10.5c-.07-5.92-.81-11,0-17.28-.12-1.1-.23-2.19-.35-3.29a26.77,26.77,0,0,0,.61-12.1l1-4c-.11-1.43-1.31-2.91-1.37-4.67s.88-3.6.73-5.46c.38,0-.1-4.46-.32-6.56-.11-1.11.73-12.3.22-14.74-1.55-5-3.11-12.06-6.73-15.57-2.18-2.1-5.82-1.44-8.88-2.82-.08-.69-.16-1.38-.24-2.07l1.22,0c-.5-1.93-1.23-4.34-1.72-6.27,4.62,1.08,18.65,2.06,21.67-.37-.05-2-1.64-2.77-2.23-4.44a49.07,49.07,0,0,1,5.08-.7l-2.09-5.09-.61-6.39c-.71-2.5-2.21-5.7-2.59-8.86l5.27.81c3.24-.39,4.88-2.4,8.31-2.73,6.78,3,8.56,5.09,5.58,11.85.26,1.23.53,2.46.79,3.69-.58,1.95-2.31,4-1.84,6.79,1.65,1,4.26,1.5,6.28,2.57-.92.27-2.7,1-2.49,2.26,3.34,2.4,10.07,3.63,12.14,7.14,5.07,8.6,5.48,25.47,5.82,36.81-.38,1-.75,1.95-1.13,2.91l1.56,6.17c-.61,1.83-.35,3.75-1,5.58.11,2.3-.67,4.27-.52,7.31l-3.25,5.39c-1.68,1.09-3.61-.56-4.24,2.06q.69,6.63,1.37,13.26-.82,4.71-1.64,9.42.65,3.73,1.29,7.46-.47,2.87-.94,5.73c.29,2.23.58,4.46.87,6.69-.47,1.77-2.2,3.22-2.06,5.85.16,3,3.2,3.33,3.17,5.81,0,.22,0,.43,0,.65-.62,1.6-2.26,2.23-2.71,4.31C280.77,236.43,288,240,286.75,241.46Zm-44.15-91c-.47,2-.94,4-1.41,6,.33,2.13,1.69,15,1.3,15.87-1.21,2.54-2.07,8.56-1.83,12.3.52,8.46.36,16.07-1.4,24.19-1.23,5.71.89,13.07.1,18.5l3,2-.21.36a5.73,5.73,0,0,0-3.85,3.2l-5.57-6.15q-.09-9.44-.17-18.88l1.61-3.26L232,202.91q.45-8.42.92-16.84c.77-2.85-.3-6.25.47-9.1-.09-.1,4.73-.65,6.35-1l.45-1.18c-5.46-4.44-7.14-37.86-7.34-39.24-.36-2.58-1.88-6.78-2.25-9.35.86,2.67,9.2,6.3,10.41,9.19,1,2.51-.1,6.5.33,8.93q.69,1.54,1.38,3.08A18.58,18.58,0,0,0,242.6,150.46ZM279,167.59l.48-.25c2.54-8.76,3.63-18.6,0-26.9-1-1.62-.92-4-1.91-5.67-1.74-4.4.22-7.3-2.33-13.76-.38,0-.77-3.24-1.14-3.2-.07,6.78-.15,29.52,2.65,34.41C273.58,153.81,277.2,167,279,167.59Zm-3.39-35c.16,0,4.27,16.65,4.27,18.7.6,3.66.15,9-1.43,11.86q-.58-4-1.17-7.93c1.8-.92,2.43-1.61,1.78-4C276.9,148.77,275.52,132.6,275.64,132.61Z"/><path class="cls-3" d="M202.81,238.43c0,.71.31,1.26,1.3,1.54l.24-.17.43-.34C204.82,239.38,204.9,237.79,202.81,238.43Zm1.8-89.58c.4,0,1.28-.83,1.68-.8,0,0-.51,1.37-.52,1.4-1,1.82,1,5,2.71,4.48,2.29-4.05,4.88-26,2.73-30.36C208.06,123.49,202.95,141.23,204.6,148.85Zm2.39,2.63c-.21-.24-.55-.51-.79-.79.14-.76,1.07-2.36.64-3.73-.12-.27-.46.56-.78-.85.08-3.23,1-16,3.72-17.86C209.17,133.08,211.75,137.32,207,151.49Zm73.36,83-.66-.65c0-2,2.38-3,2.61-5.52-1-2.34-1.4-1.68-2.33-4-.73-3.63,2-6.15,1.76-9.87q-.47-9.09-1-18.19l1.21-7.21c-.17-4.07-2.12-8.88-1-13.24a9.48,9.48,0,0,0,6.66-6.1l1.85-15.48L288.17,149c.3-14,2.6-39.5-10.57-45.43-1.34-.61-2.11-1.86-4-1.57-.16-.29-.33-.58-.5-.87l2.49-1c0-.22,0-.43,0-.65-2.18-1.68-5.17-2.49-8-3.7l1.79-6c-.26-.92-.5-1.84-.75-2.76,4.17-10.62,0-10.91-8.83-15-3.23.1-4.34,2-6.81,2.73-2.24.67-5-1.81-7.33-.76-3.36,1.51,1.62,9.48,2,11.06.81,3.5-.05,7.31,2.07,9.76l-4.67,1.38c.51,1.34,1,2.68,1.51,4l-6.91,1.42c-4.31.55-8.55-1.1-12.15-1.35-1.82-5.16,1.13-13.6-3.44-17.41a8.15,8.15,0,0,0-6.61-1.65c-9.66,1.63-7.12,9-9.75,17.67a13.34,13.34,0,0,0-8.3,8.42c-1.24,3.66,1.83,6.1,2,8.63l-2.06,7.25c-2.21,9.67-3.62,23-.24,32.2,1.35.29,3.11.59,4-.32,3.91,3.27-2.63,17.74-3.44,19.3,0,0,.2.73,0,1,1.8.5,5.7.09,6.47,1.61,1.87,3.69.4,15.19.64,19.21.19,3.1,1,4.68.88,7.83,0,1-1,.65-1.67,1l-.4.34c-.28,6.34,3.82,12.71,1.61,19.63-2.37,7.45-4.81,7-5.11,11.77-.52.48-.49,1-2.13.88-1.25-.12-5.41-1.39-5.95-2.4-1.2-2.21-1.63-19.47-1.62-23.83q.3-3.91.6-7.81c-2.45-12.45-2.1-37.71,1.43-50.62a10.92,10.92,0,0,0,.32-3.63c-.09-1.37-.32-2.66-.39-3.85q.47-4.84.93-9.69c.17-1.81-1.7-2.57-.59-5.31,3.07-7.6-.09-15.47-2.31-22.21-.46-1.4-1.77-3.59-1.41-5.6,1.05-6,7.11-1.18,7.79-4.91-8.76-4.67,3.54-21.45-6.21-25.06-17.28-6.41-26.72,19.6-13.55,24.52-3.65,0-7.31,1.41-9.2,3.51-2,2.26-1.68,6.19-3.3,9.12-2.19,3.94-8.08,12.31-8.5,17.19,0,.16,0,.31,0,.47.59,2.82,3.07,4,4,6.42.83,2.19.43,4.46,2.19,9.49.15,2.85-.62,5-.94,8.13-.42,4.13,2.51,10.73-1.41,15.34-2.11,3-5.3.12-5.56,3.91,0,.28.2,1,.18,1.31,2.87-.08,3.74,3.08,5.18,2.91,1.7.2,5.3-1,6.31,1.7.4,1.33,1.16.66.94,2.18-.21,1.22-1.9,6.41-1.4,28.88-.86,2.68-1.34,6.2-2.19,8.89,0,2.92,1,7.1-1.4,9.47a18.77,18.77,0,0,0,.24,4c.17,2.24-.91,5.29-.24,6.88,1.26,3,4.49,3.49,9.39,3.06,1.71-.15,3.56-1.3,5.73-.37,1.95.84,3.18,2.36,5.79,2.9,1.55.32,3.09-.82,4.88-.34,1.77,1,4.7.53,6.48,1.52,5.59.71,8.15-1.73,10.5-3.44,1.72-1.08,3.24-1.6,4.61-2.46,1-1.47,2.15-5.52,2.79-6.92.16-.07.7-.55.84,0a33.79,33.79,0,0,1,.37,6.57c1.06.39.62.44,1.35-.1,1.67-7.44-.93-23.81,2.36-30.8.43-.91-1.34-1-1.66-3.34-.48-3.58.48-11,2.61-23.15,0,.31,1.41,23.61,1.42,23.92-.54,1.92-1.06-.18-1,2.07.1.38.36.33.46.71.2,2.59,0,9.54,1,13.28l-1,5.07q.18,5.1.36,10.21l2.11.69.31-.35c.12-.87.24-1.73.35-2.6,4.52,6.21,12.78,6.94,21.48,5.8,2.95-.39,6.23,1.28,7.62-.9.52-.81,0-3.52-.36-4.51.73-1.07.52-3.7,1.25-4.77,1.57-3.31.88-12.38.68-16.11q.94-4.42,1.89-8.85c-.09-3.37-.42-7.75-.51-11.11.07-4.54,2.83-15.79,4.31-19.21,2,4.36,1.74,11.24,2.7,16.68,1,4.46,1.74,8.95,2.76,13.41q-.51,3.61-1,7.21c.28,1.89.57,3.77.84,5.66l.08.19c-.39,1.35-2,4.19-1.74,6.52l1.16,3.72c-.27.79-.54,1.59-.81,2.38-.51.47,3,4.12,2.82,4.77-.79,4.79.65,5.08.8,5.12,1.56,1,2,.21,4.26,1,2.9,1.18,6.24,2.77,8.22,3.08,7.65,1.2,8.39-1.88,7.8-2.75C285.83,237.16,284.65,236.53,280.36,234.49ZM206.52,101.05c2.59,6.62-.34,10.57-3.05,12.29l-.18-.1C199.69,108.41,202.39,104.77,206.52,101.05Zm-40.2,133c-.73-6.38-.25-1.54.45-7.57,1.9-2.13,2.89-16.39,3.64-19.29a83.46,83.46,0,0,1,.56-25.37c.46-2.26-.66-3.11,0-5.14,10.09,4.9,4.5,17.19,7.15,42.12,0,1.43.07,2.87.09,4.3-.87,2.54-2.28,3.75-2.07,7,.15,2.37,1.28,5.47,3.58,5.75,0,.4.62,2,.59,2.4C175.9,235.77,170.11,240.66,166.31,234.07Zm120.44,7.39a5.83,5.83,0,0,1-4.34,1.07c-2.82.09-9.84-4.17-12.75-5.87,0-1.15-.09-2.31-.14-3.47-1.28-3.65-4-8.55-2.83-13.82.48-.75,1-1.49,1.45-2.24,0-.09,0-.18,0-.28-.19-1.38-.38-2.77-.57-4.15q.5-4.73,1-9.47-1.38-4.57-2.76-9.14c-.67-3.48-.55-6.86-1.7-9.83.18-1.3.36-2.59.54-3.89-.53-3.4-1.17-9.11-4.66-10.11-2.23,1.24-7,21.12-6.22,25.18q.42,2.83.84,5.66c-.45,3.42-1.42,10.79-2.47,13.47.21,1.94.43,3.89.65,5.83-.35,1.83-1.42,5.1-.65,7.06a28,28,0,0,0-2.08,9,63.93,63.93,0,0,1-13.45.39,22.19,22.19,0,0,1-7.4-1.84c-3-1-1.82-5.54-5.87-8.42,0-7.65.66-14.65-1.23-21.19l1.45-.84q-.53-2.51-1.07-5c-.63-3.86,2.77-26.45-4-23.33-1.43,3.37-5.4,29.75-1.12,30-1.56,4.49-1.63,10.07-2.56,15,0,2.3.19,4.69.22,7-.54.09-1.93.07-2.46.15a59.08,59.08,0,0,0-2.65,8.17c-1.88,1.37-3.7,2-5.58,3.29l-1.27,1c-2.3.25-2.24,1.32-4.91,1.45-3.28.16-5.19-1.36-7.41-2.12-2.73-.93-5.22,1-7.52-.72-1.62-1.24-.79-4.43-2.59-5.58.44-7.17-.71-13.51-1-20.43-.42-10.12,2.27-27.58-2.77-34.83-2.6-3.75-7.85-4.84-11.78-4.68-4.38.61-5.61-1.14-6.2-3.12,1.49-.77,1.94-1.24,4.55-3.61,2.58-2.61,2-4.91,1.9-8.78,0-1.31-1.52-5.44.23-8.07,1.74-3.23,0-9.84,0-10.37.09,0,.77,1.68.85,1.72,3.2,6.38,6.7,5.54,7,14.84l-1.59.09c-.1.46-.19.92-.28,1.38,2.34,1,4.67.06,6.66-.77s7.54-1.86,6.3-6a18.48,18.48,0,0,0-4.16-6.58c-.19-.2-.48-2.37-1.43-3.56-2.23-2.78-7.49-10.08-7.6-10.68-.71-4,2.37-6.88,2.13-9.5,2.08-4.85,6.08-8,4.68-11l-.75,0c-2.49,4.15-9,13.18-8.44,19.94.44,5,.47-.47,2.37,4,.3.71,3.09,2.85,3.32,5.46,1.66.71,4,6.28,4.51,6.88,1.42,2.37,2.34,4,3.87,5.36-1,3.14-5.32,4.13-7.73,4.61,0-.1,0-.19-.07-.29,1.32-6.12-7.83-15.29-11.26-22.74-1.66-1.39-1.61-3.73-2.78-5.45-.34-1.55.24-3.74,1.25-6.11,2-5.53,2.45-4,3.66-6-1.42-.72,2.95-5.55,3.71-6.84q.7-3,1.42-6.07c1.86-3.81,9.27-2.59,11.07-5-.75-3.39-4.26-2-5.69-4.39-1-1.6-.76-4.14-.81-6.22-.22-9.75,5.48-13.36,14.21-13.08,8.84,4,.11,14.36,5.44,22.4-3.63.61-5.43.4-6.68,3.67s4.15,18.84,4.9,23.67c-.18,3.06-.27,7.5-1.46,8.69-.11,1.91.7,4.29.58,6.2,0,1.7-1,3.11-1.05,4.72,1.42,3.08-.95,14.93-2.12,22.35q0,6.12,0,12.24c0,9.08.32,19.19,1,29.29q-.38,3.06-.77,6.12.75,8.55,1.5,17.1c.23,1.89-1.54,3.41-.44,5.29s6.91,3.45,9.3,4a10.82,10.82,0,0,1,2.62-1.34c.15-2.35,4.72-6.49,5.58-8.86,2.23-6.13.54-13.61.06-19-.48-1.41-.39-3-.76-4,.46-.72.83-.82,1.28-1.54.78-3.35-.17-8.7-.35-11.2-.43-5.85,1.67-12.45-.18-17.91-.75-2.22-4.14-.81-6.34-1.8.71-2.76,8.5-20.61-.49-20.19,0,0-1,.71-1.35.4s0-1.58,0-1.6c-.58-3.84-2-10.7-1.34-14.69.1-.09.19-1.41.3-1.5,2.84-6.93,1.36-14.46,4.49-20.14,1-1.73,4-2,4.85-4.26,1.52-3.84,0-8,1-11,1.8-5.47,1.27-19.89,9.4-18.16,3.6.76,5.93,5.31,5.95,9.07-.31,1.44-.05,3.37-.37,4.81.72,6.38,1.25,7,2.16,10.72q-.75,3.6-1.5,7.19c.11,1.66.21,3.32.33,5-1.11,5.74-4.27,6.08-3,12.33,0,1.05.1,2.06.38,2l1.65-7.52q1.52-2.47,3-4.94c.66-3.37-1.58-5.81.21-9,.74-1.29,7.66.61,9.31,3.32,1.75,2.86,5.42,15,4.3,17.75,0,0-.42-.88-.45-.88-2.62-2.15-8.84-8.41-11.83-9.08l-.62,1c-.13,2.55.92,8.18,2.15,9.95-.13,3,4.14,37.8,5.83,39.52,0,.06,0,.12,0,.18-1.56-.08-4.26.17-4.85,1.27-.79,1.5-2.27,27-1.49,28.44.46.1,1.32,1,1.78,1-1.5,3.18-3,18.44-1,22.6,1.36,2.88,4.36,5.83,6.15,6.32,3.24.9,2.94-1.71,4.92-2.35,2.34-.76,3.26-.78,3.33-3.8l-3-1q-.47-9.79-1-19.59,1.14-5.25,2.27-10.5c-.07-5.92-.81-11,0-17.28-.12-1.1-.23-2.19-.35-3.29a26.77,26.77,0,0,0,.61-12.1l1-4c-.11-1.43-1.31-2.91-1.37-4.67s.88-3.6.73-5.46c.38,0-.1-4.46-.32-6.56-.11-1.11.73-12.3.22-14.74-1.55-5-3.11-12.06-6.73-15.57-2.18-2.1-5.82-1.44-8.88-2.82-.08-.69-.16-1.38-.24-2.07l1.22,0c-.5-1.93-1.23-4.34-1.72-6.27,4.62,1.08,18.65,2.06,21.67-.37-.05-2-1.64-2.77-2.23-4.44a49.07,49.07,0,0,1,5.08-.7l-2.09-5.09-.61-6.39c-.71-2.5-2.21-5.7-2.59-8.86l5.27.81c3.24-.39,4.88-2.4,8.31-2.73,6.78,3,8.56,5.09,5.58,11.85.26,1.23.53,2.46.79,3.69-.58,1.95-2.31,4-1.84,6.79,1.65,1,4.26,1.5,6.28,2.57-.92.27-2.7,1-2.49,2.26,3.34,2.4,10.07,3.63,12.14,7.14,5.07,8.6,5.48,25.47,5.82,36.81-.38,1-.75,1.95-1.13,2.91l1.56,6.17c-.61,1.83-.35,3.75-1,5.58.11,2.3-.67,4.27-.52,7.31l-3.25,5.39c-1.68,1.09-3.61-.56-4.24,2.06q.69,6.63,1.37,13.26-.82,4.71-1.64,9.42.65,3.73,1.29,7.46-.47,2.87-.94,5.73c.29,2.23.58,4.46.87,6.69-.47,1.77-2.2,3.22-2.06,5.85.16,3,3.2,3.33,3.17,5.81,0,.22,0,.43,0,.65-.62,1.6-2.26,2.23-2.71,4.31C280.77,236.43,288,240,286.75,241.46Zm-44.15-91c-.47,2-.94,4-1.41,6,.33,2.13,1.69,15,1.3,15.87-1.21,2.54-2.07,8.56-1.83,12.3.52,8.46.36,16.07-1.4,24.19-1.23,5.71.89,13.07.1,18.5l3,2-.21.36a5.73,5.73,0,0,0-3.85,3.2l-5.57-6.15q-.09-9.44-.17-18.88l1.61-3.26L232,202.91q.45-8.42.92-16.84c.77-2.85-.3-6.25.47-9.1-.09-.1,4.73-.65,6.35-1l.45-1.18c-5.46-4.44-7.14-37.86-7.34-39.24-.36-2.58-1.88-6.78-2.25-9.35.86,2.67,9.2,6.3,10.41,9.19,1,2.51-.1,6.5.33,8.93q.69,1.54,1.38,3.08A18.58,18.58,0,0,0,242.6,150.46ZM279,167.59l.48-.25c2.54-8.76,3.63-18.6,0-26.9-1-1.62-.92-4-1.91-5.67-1.74-4.4.22-7.3-2.33-13.76-.38,0-.77-3.24-1.14-3.2-.07,6.78-.15,29.52,2.65,34.41C273.58,153.81,277.2,167,279,167.59Zm-3.39-35c.16,0,4.27,16.65,4.27,18.7.6,3.66.15,9-1.43,11.86q-.58-4-1.17-7.93c1.8-.92,2.43-1.61,1.78-4C276.9,148.77,275.52,132.6,275.64,132.61Z"/><path class="cls-4" d="M200.05,239.66a1,1,0,0,0,.58-.23,5.65,5.65,0,0,0,2.55-2.2c.79-1.18,2.57,1.66,2.57,1.66s-2.9,2.44-4.79,2.88C195.41,243.06,197.19,239.73,200.05,239.66Z"/></svg>