<svg viewBox="0 0 602 140" style="clip-rule:evenodd;fill-rule:evenodd;stroke-linejoin:round;stroke-miterlimit:2;version:1" version="1.1" id="Layer_1" xmlns="http://www.w3.org/2000/svg">
    <path d="M551.1 139l-1.5 0 0-47.8c0 0 0.3 0 0.7 0 0.4 0 0.7 0 0.7 0l0 47.8Zm-0.7-48.5c-1.6 0-9.3-0.3-17-1.8 2-2.1 13-16.9 13-16.9 -32.4-8.1-46.1-27.9-46.7-32.4 8.7 3 23.2 6.6 23.9 6.8 2.6 0.2 3.8 1.1 5.9 2.5 4 2.7 13.2 9.1 17.7 8.2 0.1 0 0.4-0.4 0.4-0.5 0.6-1.2 1.4-10 1.7-11.2 0.1-0.7 0.1-2.1 1.2-2.1 1.1 0 1.1 1.4 1.2 2.1 0.2 1.2 1 10 1.7 11.2 0 0 0.2 0.4 0.4 0.5 4.4 1 13.7-5.4 17.7-8.2 2.1-1.4 3.3-2.3 5.9-2.5 0.7-0.2 15.2-3.8 23.9-6.8 -0.6 4.5-14.3 24.3-46.7 32.4 0 0 11 14.8 13 16.9 -7.6 1.5-15.4 1.8-17 1.8Zm0-0.6c0 0-0.1 0-0.1 0 -1.3-0.1-1.8-2.7-2-5.7 -0.3-3.2-0.4-7.3-0.9-11 -1-7.6-2.4-9.9-2.5-10 -3-1.5-15-7.7-21.2-16.5 -0.2 0-0.2 0-0.2 0 0 0-12-3-20.9-5.8 1.4 5.3 15 24 44.4 30.5 0 0-6.3 10.7-11.1 16.9 3.1 1 12.9 1.8 14.4 1.8 1.6 0 11.4-0.8 14.4-1.8 -4.8-6.2-11.1-16.9-11.1-16.9 29.3-6.5 43-25.3 44.4-30.5 -8.9 2.8-20.9 5.8-20.9 5.8 0 0-0.1 0-0.2 0 -6.2 8.8-18.2 15-21.2 16.5 -0.1 0-1.5 2.4-2.5 10 -0.5 3.7-0.6 7.8-0.9 11 -0.3 3-0.7 5.6-2 5.7Zm0-45.8c-0.4 0-0.4 0.3-0.6 0.7 -0.4 1.4-1.3 11-2 12.1 -0.2 0.3-0.6 0.4-0.9 0.4 -5.4 0.3-13.1-5.2-17.7-8.3 -1.5-1-2.5-1.7-3-1.8 -0.8-0.2-1.4-0.4-1.8-0.4 6.2 8.5 17.9 14.6 20.8 16 0.3 0.2 1.7 2.8 2.7 10.3 0.5 3.7 0.6 7.8 0.9 11.1 0.3 3.3 0.8 5.3 1.7 5.3 0.9-0.1 1.4-2 1.7-5.3 0.3-3.2 0.4-7.4 0.9-11.1 1-7.4 2.4-10.1 2.7-10.3 2.9-1.5 14.6-7.5 20.8-16 -0.4 0.1-1.1 0.2-1.8 0.5 -0.5 0.1-1.5 0.8-3 1.8 -4.6 3.1-12.3 8.5-17.7 8.3 -0.3 0-0.7-0.1-0.9-0.4 -0.8-1.1-1.6-10.7-2-12.1 -0.1-0.5-0.2-0.7-0.6-0.7Zm-24.3-11.3l23.5 0 0-31.7 1.5 0 0 31.7 23.5 0 0 1.5 -23.5 0 0 8.4c0 0-0.4-0.1-0.7-0.1 -0.3 0-0.7 0.1-0.7 0.1l0-8.4 -23.5 0 0-1.5Z" fill="#8d9092"></path>
    <path d="M135 90.8c0.3-0.5 0.7-1.6 2.6-1.6 2 0 3.1 1.7 3.1 3.5 0 2.5-1.4 4-3.3 4 -1.1 0-1.9-0.5-2.4-1.5l0 0 0 5.3c-0.2 0-0.4 0-0.6 0 -0.2 0-0.4 0-0.6 0l0-11.3c0.2 0 0.4 0 0.6 0 0.2 0 0.4 0 0.6 0l0 1.6 0 0Zm78.9 4.3c0.4 0.6 1 1.1 1.8 1.1 0.8 0 1.5-0.6 1.5-1.4 0-2.1-3.6-0.7-3.6-3.4 0-1.5 1.1-2.3 2.5-2.3 0.8 0 1.5 0.2 1.7 0.4 -0.2 0.4-0.3 0.7-0.4 1.1l-0.1 0c-0.2-0.5-0.7-1-1.3-1 -0.8 0-1.4 0.4-1.4 1.3 0 2 3.6 0.9 3.6 3.4 0 1.6-1.5 2.4-2.8 2.4 -0.6 0-1.4-0.2-1.9-0.5 0.1-0.4 0.3-0.7 0.3-1.1l0.1 0Zm-58.7 0c0.4 0.6 1 1.1 1.8 1.1 0.8 0 1.5-0.6 1.5-1.4 0-2.1-3.6-0.7-3.6-3.4 0-1.5 1.1-2.3 2.5-2.3 0.8 0 1.5 0.2 1.7 0.4 -0.2 0.4-0.3 0.7-0.4 1.1l-0.1 0c-0.2-0.5-0.7-1-1.3-1 -0.8 0-1.4 0.4-1.4 1.3 0 2 3.6 0.9 3.6 3.4 0 1.6-1.5 2.4-2.8 2.4 -0.6 0-1.4-0.2-1.9-0.5 0.1-0.4 0.3-0.7 0.3-1.1l0.1 0Zm188.9 0c0.4 0.6 1 1.1 1.8 1.1 0.8 0 1.5-0.6 1.5-1.4 0-2.1-3.6-0.7-3.6-3.4 0-1.5 1.1-2.3 2.5-2.3 0.8 0 1.5 0.2 1.7 0.4 -0.2 0.4-0.3 0.7-0.4 1.1l-0.1 0c-0.2-0.5-0.7-1-1.3-1 -0.8 0-1.4 0.4-1.4 1.3 0 2 3.6 0.9 3.6 3.4 0 1.6-1.5 2.4-2.8 2.4 -0.6 0-1.4-0.2-1.9-0.5 0.1-0.4 0.3-0.7 0.3-1.1l0.1 0Zm-102.1-2.2c-0.1 1.7 0.8 3.2 2.7 3.2 1 0 1.9-0.7 2.3-1.1l0 0.8c-0.8 0.5-1.7 0.9-2.6 0.9 -2.1 0-3.6-1.4-3.6-3.8 0-2.1 1.2-3.8 3.5-3.8 1.7 0 3.3 1.2 3.1 3.8 -1 0-2.1 0-3.1 0l-2.2 0Zm74.9 0c-0.1 1.7 0.8 3.2 2.7 3.2 1 0 1.9-0.7 2.3-1.1l0 0.8c-0.8 0.5-1.7 0.9-2.6 0.9 -2.1 0-3.6-1.4-3.6-3.8 0-2.1 1.2-3.8 3.5-3.8 1.7 0 3.3 1.2 3.1 3.8 -1 0-2.1 0-3.1 0l-2.2 0Zm-173.8 0c-0.1 1.7 0.8 3.2 2.7 3.2 1 0 1.9-0.7 2.3-1.1l0 0.8c-0.8 0.5-1.7 0.9-2.6 0.9 -2.1 0-3.6-1.4-3.6-3.8 0-2.1 1.2-3.8 3.5-3.8 1.7 0 3.3 1.2 3.1 3.8 -1 0-2.1 0-3.1 0l-2.2 0Zm63.8 0c-0.1 1.7 0.8 3.2 2.7 3.2 1 0 1.9-0.7 2.3-1.1l0 0.8c-0.8 0.5-1.7 0.9-2.6 0.9 -2.1 0-3.6-1.4-3.6-3.8 0-2.1 1.2-3.8 3.5-3.8 1.7 0 3.3 1.2 3.1 3.8 -1 0-2.1 0-3.1 0l-2.2 0Zm80.1 0c-0.1 1.7 0.8 3.2 2.7 3.2 1 0 1.9-0.7 2.3-1.1l0 0.8c-0.8 0.5-1.7 0.9-2.6 0.9 -2.1 0-3.6-1.4-3.6-3.8 0-2.1 1.2-3.8 3.5-3.8 1.7 0 3.3 1.2 3.1 3.8 -1 0-2.1 0-3.1 0l-2.2 0Zm-167.4 0c-0.1 2.3 1.6 3.9 3.6 3.9 2.5 0 3.8-1.9 3.8-3.8 0-2.3-1.5-3.8-3.6-3.8 -2.2 0-3.9 1.5-3.9 3.7Zm104 0c-0.1 2.3 1.6 3.9 3.6 3.9 2.5 0 3.8-1.9 3.8-3.8 0-2.3-1.5-3.8-3.6-3.8 -2.2 0-3.9 1.5-3.9 3.7Zm-56.8-2.1l-0.1 0c-0.1-0.2-0.2-0.4-0.4-0.5 -0.4-0.4-1-0.6-1.5-0.6 -1.8 0-2.6 1.5-2.6 3.2 0 2 1.1 3.4 2.8 3.4 0.9 0 1.5-0.4 2.1-1l0.1 0 -0.1 0.7c-0.7 0.5-1.5 0.8-2.4 0.8 -2.6 0-3.9-1.7-3.9-3.8 0-2.4 1.7-3.8 4-3.8 0.9 0 1.7 0.2 2.4 0.6l-0.4 1Zm109.1 0l-0.1 0c-0.1-0.2-0.2-0.4-0.4-0.5 -0.4-0.4-1-0.6-1.5-0.6 -1.8 0-2.6 1.5-2.6 3.2 0 2 1.1 3.4 2.8 3.4 0.9 0 1.5-0.4 2.1-1l0.1 0 -0.1 0.7c-0.7 0.5-1.5 0.8-2.4 0.8 -2.6 0-3.9-1.7-3.9-3.8 0-2.4 1.7-3.8 4-3.8 0.9 0 1.7 0.2 2.4 0.6l-0.4 1Zm53.6 0l-0.1 0c-0.1-0.2-0.2-0.4-0.4-0.5 -0.4-0.4-1-0.6-1.5-0.6 -1.8 0-2.6 1.5-2.6 3.2 0 2 1.1 3.4 2.8 3.4 0.9 0 1.5-0.4 2.1-1l0.1 0 -0.1 0.7c-0.7 0.5-1.5 0.8-2.4 0.8 -2.6 0-3.9-1.7-3.9-3.8 0-2.4 1.7-3.8 4-3.8 0.9 0 1.7 0.2 2.4 0.6l-0.4 1Zm-151.9 0.1l-0.2 0 0-0.9c0.7-0.5 1.6-0.8 2.5-0.8 1.6 0 2.5 0.8 2.5 2.6l0 3.6c0 0.6 0 0.9 0.9 0.7l0 0.3c-0.1 0-0.3 0.1-0.5 0.2 -0.8 0.1-1.5 0-1.6-0.9l-0.1 0.1c-0.6 0.6-1.4 1-2.3 1 -1.1 0-2-0.7-2-1.9 0-1.8 1.4-2 2.8-2.2 1.2-0.2 1.6-0.3 1.6-1 0-1.1-0.6-1.8-1.8-1.8 -1.1 0-1.7 0.7-1.8 1.1Zm12.7-1.6l1.6 0c0 0.2 0 0.4 0 0.6l-1.6 0 0 3.9c0 0.9-0.1 2.5 1.1 2.5 0.2 0 0.5-0.1 0.7-0.1l0 0.4c-0.4 0.2-0.8 0.3-1.3 0.3 -1.2 0-1.8-0.5-1.8-2.4l0-4.5 -1 0c0-0.2 0-0.4 0-0.6l1 0 0-1.5 1.2-0.5 0 2Zm150.7 0l1.6 0c0 0.2 0 0.4 0 0.6l-1.6 0 0 3.9c0 0.9-0.1 2.5 1.1 2.5 0.2 0 0.5-0.1 0.7-0.1l0 0.4c-0.4 0.2-0.8 0.3-1.3 0.3 -1.2 0-1.8-0.5-1.8-2.4l0-4.5 -1 0c0-0.2 0-0.4 0-0.6l1 0 0-1.5 1.2-0.5 0 2Zm-82.4 0l1.6 0c0 0.2 0 0.4 0 0.6l-1.6 0 0 3.9c0 0.9-0.1 2.5 1.1 2.5 0.2 0 0.5-0.1 0.7-0.1l0 0.4c-0.4 0.2-0.8 0.3-1.3 0.3 -1.2 0-1.8-0.5-1.8-2.4l0-4.5 -1 0c0-0.2 0-0.4 0-0.6l1 0 0-1.5 1.2-0.5 0 2Zm-54.7-4.2c-0.2 0-0.4 0-0.6 0 -0.2 0-0.4 0-0.6 0l0 5.6c-0.5-0.9-1.3-1.5-2.4-1.5 -2 0-3.3 1.7-3.3 3.8 0 2.5 1.3 3.7 3.1 3.7 1.2 0 2-0.5 2.6-1.6l0 1.5c0.2 0 0.4 0 0.6 0 0.2 0 0.4 0 0.6 0l0-11.5Zm-85.4 1c-0.2 0-0.4 0-0.6 0 -0.2 0-0.4 0-0.6 0l-3.8 3.9c-0.2 0.2-0.5 0.5-0.8 0.8 -0.2 0.1-0.4 0.2-0.4 0.1l0-4.7c-0.2 0-0.5 0-0.7 0 -0.2 0-0.5 0-0.7 0l0 10.5c0.2 0 0.4 0 0.7 0 0.2 0 0.4 0 0.7 0l0-5.4c0-0.1 0.2 0 0.3 0l3.4 3.9c0.4 0.4 0.7 0.9 1.1 1.4 0.3 0 0.6 0 0.9 0 0.3 0 0.5 0 0.8 0l0-0.1 -1.2-1.5c-1.2-1.4-2.5-2.8-3.7-4.2l1.3-1.3 3.5-3.4Zm191.7 0c2.4 0 3.4 0.8 3.4 2.3 0 1.8-1.6 2.6-3.2 2.9l3.2 4 0.7 0.9 0.3 0.4c-0.3 0-0.6 0-0.9 0 -0.3 0-0.6 0-0.9 0 -0.3-0.5-0.6-0.9-1-1.3l-1.8-2.4 -1.2-1.4 -0.6 0 0 5.1c-0.2 0-0.5 0-0.7 0 -0.2 0-0.5 0-0.7 0l0-10.5 3.3 0Zm-32.5 10.5c0.2 0 0.4 0 0.6 0 0.2 0 0.4 0 0.6 0l0-4.2c0-1.6 0.6-2.5 2-2.5 1.3 0 1.7 0.8 1.7 2.6l0 4.1c0.2 0 0.4 0 0.6 0 0.2 0 0.4 0 0.6 0l0-4.4c0-1.9-0.7-3-2.5-3 -1.1 0-1.9 0.6-2.5 1.5l0-5.6c-0.2 0-0.4 0-0.6 0 -0.2 0-0.4 0-0.6 0l0 11.5Zm16.2 0c0.2 0 0.4 0 0.6 0 0.2 0 0.4 0 0.6 0l0-3.6c0-1.9 0.4-3.1 2-3.1 1.4 0 1.7 1.1 1.7 2.6l0 4.1c0.2 0 0.4 0 0.6 0 0.2 0 0.4 0 0.6 0l0-4.4c0-2-0.7-3-2.5-3 -1.1 0-1.9 0.6-2.5 1.5l0-1.4c-0.2 0-0.4 0-0.6 0 -0.2 0-0.4 0-0.6 0l0 7.3Zm-165.2 0c0.2 0 0.4 0 0.6 0 0.2 0 0.4 0 0.6 0l0-4c0-0.8 0-1.3 0.6-2 0.2-0.3 0.6-0.4 1-0.4 0.3 0 0.5 0.2 0.7 0.2l0.2-1.3c-0.1-0.1-0.3-0.1-0.5-0.1 -0.8 0-1.4 0.6-1.9 1.4l-0.1 0.2 0-1.5c-0.2 0-0.4 0-0.6 0 -0.2 0-0.4 0-0.6 0l0 7.3Zm133.4 0c0.2 0 0.4 0 0.6 0 0.2 0 0.4 0 0.6 0l0-11.5c-0.2 0-0.4 0-0.6 0 -0.2 0-0.4 0-0.6 0l0 11.5Zm-29.2-7.3l0-0.1c0.2-1.7 1-4.3 3.2-4.1 -0.1 0.4-0.1 0.9-0.1 1.2l-0.1 0.1 -0.3-0.2c-0.2-0.1-0.4-0.1-0.5-0.1 -1.5 0-1.4 1.7-1.1 3.1l1.6 0c0 0.2 0 0.4 0 0.6l-1.5 0 0 6.8c-0.2 0-0.4 0-0.6 0 -0.2 0-0.4 0-0.6 0l0-6.8 -1.1 0c0-0.2 0-0.4 0-0.6l1.1 0Zm16.1 7.3c0.2 0 0.4 0 0.6 0 0.2 0 0.4 0 0.6 0l0-3.6c0-1.9 0.4-3.1 2-3.1 1.4 0 1.7 1.1 1.7 2.6l0 4.1c0.2 0 0.4 0 0.6 0 0.2 0 0.4 0 0.6 0l0-4.4c0-2-0.7-3-2.5-3 -1.1 0-1.9 0.6-2.5 1.5l0-1.4c-0.2 0-0.4 0-0.6 0 -0.2 0-0.4 0-0.6 0l0 7.3Zm-80.3 0c0.2 0 0.4 0 0.6 0 0.2 0 0.4 0 0.6 0l0-4.2c0-1.6 0.6-2.5 2-2.5 1.3 0 1.7 0.8 1.7 2.6l0 4.1c0.2 0 0.4 0 0.6 0 0.2 0 0.4 0 0.6 0l0-4.4c0-1.9-0.7-3-2.5-3 -1.1 0-1.9 0.6-2.5 1.5l0-5.6c-0.2 0-0.4 0-0.6 0 -0.2 0-0.4 0-0.6 0l0 11.5Zm162.7 0c0.2 0 0.4 0 0.6 0 0.2 0 0.4 0 0.6 0l0-4.2c0-1.6 0.6-2.5 2-2.5 1.3 0 1.7 0.8 1.7 2.6l0 4.1c0.2 0 0.4 0 0.6 0 0.2 0 0.4 0 0.6 0l0-4.4c0-1.9-0.7-3-2.5-3 -1.1 0-1.9 0.6-2.5 1.5l0-5.6c-0.2 0-0.4 0-0.6 0 -0.2 0-0.4 0-0.6 0l0 11.5Zm-94.2-7.3l0-0.1c0.2-1.7 1-4.3 3.2-4.1 -0.1 0.4-0.1 0.9-0.1 1.2l-0.1 0.1 -0.3-0.2c-0.2-0.1-0.4-0.1-0.5-0.1 -1.5 0-1.4 1.7-1.1 3.1l1.6 0c0 0.2 0 0.4 0 0.6l-1.5 0 0 6.8c-0.2 0-0.4 0-0.6 0 -0.2 0-0.4 0-0.6 0l0-6.8 -1.1 0c0-0.2 0-0.4 0-0.6l1.1 0Zm-52.1 0l0-0.1c0.2-1.7 1-4.3 3.2-4.1 -0.1 0.4-0.1 0.9-0.1 1.2l-0.1 0.1 -0.3-0.2c-0.2-0.1-0.4-0.1-0.5-0.1 -1.5 0-1.4 1.7-1.1 3.1l1.6 0c0 0.2 0 0.4 0 0.6l-1.5 0 0 6.8c-0.2 0-0.4 0-0.6 0 -0.2 0-0.4 0-0.6 0l0-6.8 -1.1 0c0-0.2 0-0.4 0-0.6l1.1 0Zm-34.9 7.3c0.2 0 0.4 0 0.6 0 0.2 0 0.4 0 0.6 0l0-4c0-0.8 0-1.3 0.6-2 0.2-0.3 0.6-0.4 1-0.4 0.3 0 0.5 0.2 0.7 0.2l0.2-1.3c-0.1-0.1-0.3-0.1-0.5-0.1 -0.8 0-1.4 0.6-1.9 1.4l-0.1 0.2 0-1.5c-0.2 0-0.4 0-0.6 0 -0.2 0-0.4 0-0.6 0l0 7.3Zm117.5-7.3c-0.2 0-0.4 0-0.6 0 -0.2 0-0.4 0-0.6 0l0 7.3c0.2 0 0.4 0 0.6 0 0.2 0 0.4 0 0.6 0l0-7.3Zm-40.2 0.4c1.7 0 2.2 1.8 2.2 3.2 0 1.2-0.6 3.4-2.4 3.4 -1.8 0-2.4-1.6-2.4-3.2 0-1.6 0.6-3.5 2.5-3.5Zm-104 0c1.7 0 2.2 1.8 2.2 3.2 0 1.2-0.6 3.4-2.4 3.4 -1.8 0-2.4-1.6-2.4-3.2 0-1.6 0.6-3.5 2.5-3.5Zm79.3 3.1c0 1.4-0.5 3.4-2.3 3.4 -1.6 0-2.1-1.6-2.1-3 0-1.6 0.3-3.4 2.3-3.4 1.6 0 2.1 1.6 2.1 2.9Zm-67.8 0.4c0-1.4 0.5-3.4 2.2-3.4 1.7 0 2.1 1.6 2.1 3.1 0 1.8-0.6 3.3-2.1 3.3 -1.6 0-2.3-1.3-2.3-3Zm46.2 1.9c0 0.1-0.3 0.4-0.4 0.5 -0.3 0.3-0.8 0.6-1.2 0.6 -0.9 0-1.5-0.5-1.5-1.4 0-1.4 1.6-1.6 2.6-1.8l0.5-0.1 0 2.2Zm110-2.7c0-1.3-0.4-2.7-1.9-2.7 -1.4 0-2.1 1.4-2.2 2.7l4.1 0Zm-80.1 0c0-1.3-0.4-2.7-1.9-2.7 -1.4 0-2.1 1.4-2.2 2.7l4.1 0Zm35 0c0-1.3-0.4-2.7-1.9-2.7 -1.4 0-2.1 1.4-2.2 2.7l4.1 0Zm74.9 0c0-1.3-0.4-2.7-1.9-2.7 -1.4 0-2.1 1.4-2.2 2.7l4.1 0Zm-173.8 0c0-1.3-0.4-2.7-1.9-2.7 -1.4 0-2.1 1.4-2.2 2.7l4.1 0Zm161.2-5.7c0.6 0 1.7-0.1 2.3 0 1.2 0.2 1.7 0.9 1.7 1.9 0 1.2-0.8 2-2 2.2 -0.8 0.2-1.8 0.1-2 0.1l0-4.2Zm-183.6 1.4c0.4 0 0.7-0.3 0.7-0.7 0-0.4-0.3-0.7-0.7-0.7 -0.4 0-0.7 0.3-0.7 0.7 0 0.4 0.3 0.7 0.7 0.7Zm104 0c0.4 0 0.7-0.3 0.7-0.7 0-0.4-0.3-0.7-0.7-0.7 -0.4 0-0.7 0.3-0.7 0.7 0 0.4 0.3 0.7 0.7 0.7Zm-3 0c0.4 0 0.7-0.3 0.7-0.7 0-0.4-0.3-0.7-0.7-0.7 -0.4 0-0.7 0.3-0.7 0.7 0 0.4 0.3 0.7 0.7 0.7Zm-104 0c0.4 0 0.7-0.3 0.7-0.7 0-0.4-0.3-0.7-0.7-0.7 -0.4 0-0.7 0.3-0.7 0.7 0 0.4 0.3 0.7 0.7 0.7Zm146-1.5c0-0.4-0.4-0.8-0.8-0.8 -0.4 0-0.8 0.4-0.8 0.8 0 0.4 0.4 0.8 0.8 0.8 0.4 0 0.8-0.4 0.8-0.8Zm-259.7-38.6c-0.5 0-1 0.1-1.5 0.1 -0.5 0-1-0.1-1.5-0.1l0 20.5c0 3-0.4 6.1-4.2 6.3l0.3 0.9c4.4-0.1 7-3.3 6.9-7.6l0-20.1Zm22 23.6c7.5 0 12.9-4.9 12.9-12.5 0-8.1-6.5-11.6-12.8-11.6 -7 0-12.5 4.7-12.5 12.1 0 7.2 5 12 12.5 12Zm160.2-5c1.3 2.2 2.8 3.5 5.5 3.5 2.7 0 4.7-2.3 4.7-4.9 0-6.3-10.6-3.5-10.6-11.2 0-4.4 3.5-6.5 7.5-6.5 1.6 0 3.6 0.5 4.8 1.6 -0.4 0.9-0.6 1.8-0.9 2.8l-0.3 0c-0.7-1.8-2.2-2.9-4.2-2.9 -2.3 0-4.3 1.6-4.3 4 0 6.2 10.7 3.7 10.7 10.9 0 4.8-3.8 7.7-8.4 7.7 -1.7 0-4.4-0.7-5.5-2 0.3-1 0.5-2 0.6-3l0.3 0Zm204.5 0.9c-0.7 0.6-3.5 2.7-7.2 2.7 -5.3 0-9.1-4.2-9.1-10.7 0-5.8 3.1-10.8 9.3-10.8 3.5 0 6 2.3 6.5 2.9l0.2 0c0.2-0.9 0.4-1.8 0.7-2.6 -2.3-1-4.8-1.6-7.3-1.6 -7.1 0-12.8 4.3-12.8 11.9 0 7.4 4.5 12.1 11.9 12.1 2.6 0 5.3-0.5 7.5-1.9l0.2-2.1Zm-163.9 0c-0.7 0.6-3.5 2.7-7.2 2.7 -5.3 0-9.1-4.2-9.1-10.7 0-5.8 3.1-10.8 9.3-10.8 3.5 0 6 2.3 6.5 2.9l0.2 0c0.2-0.9 0.4-1.8 0.7-2.6 -2.3-1-4.8-1.6-7.3-1.6 -7.1 0-12.8 4.3-12.8 11.9 0 7.4 4.5 12.1 11.9 12.1 2.6 0 5.3-0.5 7.5-1.9l0.2-2.1Zm27.4-9.8c-2.4 0.1-4.7 0.2-7.1 0.2 -2.3 0-4.7-0.1-7.1-0.2l0-9.7c-0.5 0-1 0.1-1.5 0.1 -0.5 0-1-0.1-1.5-0.1l0 23.2c0.5 0 1-0.1 1.5-0.1 0.5 0 0.9 0.1 1.5 0.1l0-11.6c2.4-0.1 4.8-0.2 7.1-0.2 2.4 0 4.7 0.1 7.1 0.2l0 11.6c0.5 0 1-0.1 1.5-0.1 0.5 0 0.9 0.1 1.5 0.1l0-23.1c-0.5 0-1 0.1-1.5 0.1 -0.5 0-1-0.1-1.5-0.1l0 9.7Zm-188.3 0c-2.4 0.1-4.7 0.2-7.1 0.2 -2.3 0-4.7-0.1-7.1-0.2l0-9.7c-0.5 0-1 0.1-1.5 0.1 -0.5 0-1-0.1-1.5-0.1l0 23.2c0.5 0 1-0.1 1.5-0.1 0.5 0 0.9 0.1 1.5 0.1l0-11.6c2.4-0.1 4.8-0.2 7.1-0.2 2.4 0 4.7 0.1 7.1 0.2l0 11.6c0.5 0 1-0.1 1.5-0.1 0.5 0 0.9 0.1 1.5 0.1l0-23.1c-0.5 0-1 0.1-1.5 0.1 -0.5 0-1-0.1-1.5-0.1l0 9.7Zm352.2 0c-2.4 0.1-4.7 0.2-7.1 0.2 -2.3 0-4.7-0.1-7.1-0.2l0-9.7c-0.5 0-1 0.1-1.5 0.1 -0.5 0-1-0.1-1.5-0.1l0 23.2c0.5 0 1-0.1 1.5-0.1 0.5 0 0.9 0.1 1.5 0.1l0-11.6c2.4-0.1 4.8-0.2 7.1-0.2 2.4 0 4.7 0.1 7.1 0.2l0 11.6c0.5 0 1-0.1 1.5-0.1 0.5 0 0.9 0.1 1.5 0.1l0-23.1c-0.5 0-1 0.1-1.5 0.1 -0.5 0-1-0.1-1.5-0.1l0 9.7Zm-85.9 13.4c0.5 0 1-0.1 1.5-0.1 0.5 0 0.9 0.1 1.5 0.1l0-23.1c-0.5 0-1 0.1-1.5 0.1 -0.5 0-1-0.1-1.5-0.1l0 23.1Zm-160.1 0c0.5 0 1-0.1 1.5-0.1 0.5 0 0.9 0.1 1.5 0.1l0-23.1c-0.5 0-1 0.1-1.5 0.1 -0.5 0-1-0.1-1.5-0.1l0 23.1Zm181.9-23.1c5.2 0 7.5 1.7 7.5 5.1 0 3.9-3.5 5.8-6.9 6.4l7 8.8 1.6 1.9 0.6 0.8c-0.7 0-1.3-0.1-2-0.1 -0.6 0-1.3 0.1-1.9 0.1 -0.7-1-1.4-2-2.1-2.9l-4-5.2 -2.7-3.2 -1.3 0 0 11.3c-0.5 0-1-0.1-1.5-0.1 -0.5 0-1 0.1-1.5 0.1l0-23.1 7.2 0Zm-264.7-0.5l10.2 23.7c-0.6 0-1.2-0.1-1.8-0.1 -0.6 0-1.2 0.1-1.8 0.1 -1-2.8-2.2-6.1-3.6-9.1l-8.6 0c-1.2 3-2.4 6-3.4 9.1 -0.5 0-0.8-0.1-1.3-0.1 -0.4 0-0.8 0.1-1.2 0.1l10.6-23.7 0.8 0Zm68.6 17.9l0.3 0 0-17.4c0.3 0 0.6 0.1 0.9 0.1 0.3 0 0.6-0.1 0.9-0.1l0 23.1 -1 0c-0.4-0.5-1-1.3-1.8-2.1l-14.6-16.2 -0.3 0 0 18.2c-0.3 0-0.6-0.1-0.9-0.1 -0.3 0-0.6 0.1-0.9 0.1l0-23.1 1.3 0 16.1 17.4Zm164.7-17.4c-0.5 0-0.9 0.1-1.3 0.1 -0.5 0-0.9-0.1-1.4-0.1l-8.3 8.6c-0.5 0.5-1.2 1.2-1.8 1.7 -0.3 0.3-0.8 0.4-0.8 0.2l0-10.5c-0.5 0-1 0.1-1.5 0.1 -0.5 0-1-0.1-1.5-0.1l0 23.1c0.5 0 1-0.1 1.5-0.1 0.5 0 0.9 0.1 1.5 0.1l0-11.8c0-0.1 0.4 0 0.6 0.1l7.4 8.6c0.8 1 1.6 2 2.3 3.1 0.6 0 1.3-0.1 1.9-0.1 0.6 0 1.2 0.1 1.9 0.1l0-0.2 -2.7-3.4c-2.7-3.1-5.5-6.2-8.2-9.3l2.9-2.9 7.7-7.4Zm-196.4 17.4l0.3 0 0-17.4c0.3 0 0.6 0.1 0.9 0.1 0.3 0 0.6-0.1 0.9-0.1l0 23.1 -1 0c-0.4-0.5-1-1.3-1.8-2.1l-14.6-16.2 -0.3 0 0 18.2c-0.3 0-0.6-0.1-0.9-0.1 -0.3 0-0.6 0.1-0.9 0.1l0-23.1 1.3 0 16.1 17.4Zm154.6-17.4c0 0.4-0.1 0.7-0.1 1 0 0.3 0.1 0.7 0.1 1 -1-0.2-2-0.3-3-0.4l-3.4-0.1 -2.6 0 0 8.5 5.2 0c1 0 2-0.1 3-0.2 0 0.3-0.1 0.6-0.1 0.9 0 0.3 0.1 0.6 0.1 0.9 -1 0-2-0.2-3-0.2l-5.2 0 0 9.9c2.1 0.1 4.1-0.1 6.1-0.1 1 0 2.1-0.1 3.1-0.3 0 0.4-0.1 0.7-0.1 1 0 0.3 0.1 0.7 0.1 1l-12.2 0 0-23 12 0Zm163.9 0c0 0.4-0.1 0.7-0.1 1 0 0.3 0.1 0.7 0.1 1 -1-0.2-2-0.3-3-0.4l-3.4-0.1 -2.6 0 0 8.5 5.2 0c1 0 2-0.1 3-0.2 0 0.3-0.1 0.6-0.1 0.9 0 0.3 0.1 0.6 0.1 0.9 -1 0-2-0.2-3-0.2l-5.2 0 0 9.9c2.1 0.1 4.1-0.1 6.1-0.1 1 0 2.1-0.1 3.1-0.3 0 0.4-0.1 0.7-0.1 1 0 0.3 0.1 0.7 0.1 1l-12.2 0 0-23 12 0Zm-409.1 11.3c0.2 3.7-2.3 11.1-9.5 11.1 -5 0-9.2-3.6-9.2-10.5 0-6.9 3.6-11.4 9.5-11.4 2.7 0 5.3 1.2 7 3.3 1.8 2.3 2.1 4.6 2.1 7.4Zm56.3 1.3l-3.8-8.7 -3.7 8.7 7.4 0Zm258-11.3c1.4-0.1 3.7-0.2 5 0 2.5 0.4 3.7 1.9 3.7 4.3 0 2.6-1.9 4.3-4.3 4.8 -1.7 0.3-3.9 0.2-4.4 0.2l0-9.3Z" fill="#8d9092"></path>
</svg>